<svg width="500" height="500" viewBox="0 0 500 500" fill="none" xmlns="http://www.w3.org/2000/svg">
<g filter="url(#filter0_i_35_136)">
<path fill-rule="evenodd" clip-rule="evenodd" d="M375.66 301.685C375.66 278.63 400.088 267.106 414.889 283.399L493.113 369.592C502.296 379.7 502.296 396.082 493.113 406.197L415.731 492.379C400.929 508.672 375.631 497.11 375.631 474.061V422.403H313.05C303.169 422.403 293.876 417.338 288.006 408.61L243.835 343.739H302.289V314.648L328.703 353.44H375.66V301.685ZM266.638 176.718L248.484 149.459L288.016 91.39C293.915 82.7049 303.209 77.5866 313.05 77.5866H374.759V25.9395C374.759 2.88964 400.057 -8.6714 414.859 7.62117L492.241 93.8037C501.423 103.911 501.425 120.289 492.242 130.408L414.86 216.591C400.939 232.883 375.631 221.353 375.631 198.305V146.55H328.703L302.289 184.528V176.718H266.638ZM208.372 176.718H139.895V191.089L109.568 146.55H31.305C13.9992 146.55 0 131.141 0 112.068C0 92.9955 13.9992 77.5866 31.305 77.5866H125.22C135.101 77.5866 144.394 82.7588 150.264 91.3792L208.372 176.718ZM139.895 308.901L109.568 353.44H31.305C13.9992 353.44 0 368.859 0 387.921C0 406.983 13.9992 422.403 31.305 422.403H125.22C135.062 422.403 144.355 417.285 150.254 408.599L189.777 350.552L185.138 343.739H139.895V308.901Z" fill="white"/>
<path d="M321.073 253.255C325.045 257.574 327.296 263.428 327.296 269.522C327.296 275.616 325.045 281.47 321.073 285.789C317.101 290.108 311.716 292.555 306.11 292.555H136.623C131.004 292.555 125.615 290.108 121.643 285.789C117.671 281.47 115.437 275.616 115.437 269.522C115.437 263.428 117.671 257.574 121.643 253.255C125.615 248.937 131.004 246.49 136.623 246.49H306.11C311.716 246.49 317.101 248.937 321.073 253.255ZM318.16 310.165C319.484 311.605 320.234 313.572 320.234 315.588V323.265C320.234 330.991 317.277 339.244 311.981 345.002C306.684 350.76 299.093 353.975 291.987 353.975H150.747C143.257 353.975 136.071 350.76 130.775 345.002C125.474 339.244 122.499 330.991 122.499 323.265V315.588C122.499 313.572 123.245 311.605 124.569 310.165C125.893 308.726 127.69 307.91 129.561 307.91H313.172C315.026 307.91 316.836 308.726 318.16 310.165ZM130.616 229.599C128.648 228.543 126.926 227.056 125.576 225.184C124.225 223.313 123.289 221.154 122.83 218.85C122.371 216.499 122.411 214.1 122.936 211.797C132.642 170.204 173.036 139.004 221.367 139.004C269.697 139.004 310.083 170.204 319.793 211.797C320.323 214.1 320.367 216.499 319.881 218.85C319.44 221.154 318.513 223.313 317.145 225.184C315.423 227.056 314.099 228.543 312.113 229.599C310.171 230.607 308.008 231.135 305.801 231.135H136.919C134.739 231.135 132.58 230.607 130.616 229.599ZM272.875 179.647C271.551 181.086 270.801 183.054 270.801 185.069C270.801 186.605 271.198 188.092 271.992 189.34C272.787 190.587 273.493 191.595 275.17 192.171C276.45 192.315 277.863 192.891 279.231 192.603C280.599 192.315 281.879 191.595 282.85 190.491C283.865 189.436 284.527 188.044 284.792 186.557C285.057 185.069 284.527 183.534 284.395 182.142C283.865 180.319 282.938 179.551 281.791 178.687C280.643 177.824 279.275 176.96 277.863 176.96C276.009 176.96 274.199 178.207 272.875 179.647ZM216.379 164.287C215.055 165.727 214.305 167.68 214.305 169.714C214.305 171.23 214.702 172.737 215.497 173.985C216.291 175.232 216.997 176.24 218.674 176.816C219.954 176.96 221.367 177.536 222.735 177.248C224.103 176.96 225.383 176.24 226.354 175.136C227.369 174.081 228.032 172.689 228.296 171.211C228.561 169.724 228.032 168.179 227.899 166.777C227.369 165.371 226.443 164.172 225.295 163.332C224.147 162.488 222.779 161.605 221.367 161.605C219.513 161.605 217.703 162.848 216.379 164.287ZM159.884 179.647C158.559 181.086 157.809 183.054 157.809 185.069C157.809 186.605 158.206 188.092 159.001 189.34C159.795 190.587 160.501 191.595 162.179 192.171C163.459 192.315 164.871 192.891 166.239 192.603C167.608 192.315 168.888 191.595 169.859 190.491C170.874 189.436 171.536 188.044 171.801 186.557C172.065 185.069 171.536 183.534 171.403 182.142C170.874 180.319 169.947 179.551 168.799 178.687C167.652 177.824 166.283 176.96 164.871 176.96C163.017 176.96 161.208 178.207 159.884 179.647Z" fill="white"/>
</g>
<defs>
<filter id="filter0_i_35_136" x="0" y="0" width="500" height="504" filterUnits="userSpaceOnUse" color-interpolation-filters="sRGB">
<feFlood flood-opacity="0" result="BackgroundImageFix"/>
<feBlend mode="normal" in="SourceGraphic" in2="BackgroundImageFix" result="shape"/>
<feColorMatrix in="SourceAlpha" type="matrix" values="0 0 0 0 0 0 0 0 0 0 0 0 0 0 0 0 0 0 127 0" result="hardAlpha"/>
<feOffset dy="4"/>
<feGaussianBlur stdDeviation="2"/>
<feComposite in2="hardAlpha" operator="arithmetic" k2="-1" k3="1"/>
<feColorMatrix type="matrix" values="0 0 0 0 0 0 0 0 0 0 0 0 0 0 0 0 0 0 0.25 0"/>
<feBlend mode="normal" in2="shape" result="effect1_innerShadow_35_136"/>
</filter>
</defs>
</svg>
